[center]

[URL=http://img4.imageshack.us/i/chilloutsd.jpg/][IMG]http://img4.imageshack.us/img4/7285/chilloutsd.jpg[/IMG][/URL]
-=-=-=-=-=-=-=-=-=-=-=-=-=-=-=-=-=-=-=-=-

[b]Chill Out, Scooby-Doo! 
--------------------------[/b]

is the eleventh in the Scooby-Doo direct-to-video film series, produced by Warner Bros. Animation (though it used a Hanna-Barbera logo and copyright at the end of the movie) which began in late 2006. It was dedicated to Iwao Takamoto and Joseph Barbera, who both died during the making of the film. It is a semi-remake of the classic Scooby episodes, That's Snow Ghost!, The Ghost of Bigfoot, and There's No Creature Like Snow Creature as well as A Scary Night With A Snow Beast Fright, except it takes place in the Himalayas and features the Abominable Snowman. It was the final direct-to-video Scooby-Doo movie that Joseph Barbera was involved with.

Synopsis
---------

The gang's vacation to Paris takes a wrong turn when Scooby and Shaggy miss their flight and end up on a skydiving expedition in the Himalayas. To make matters worse, upon arrival they must outrun the Abominable Snowmonster.
 
Director: 
Joe Sichta

 Writers: 
Adam Scheinman, Joe Sichta

Stars:
 Rene Auberjonois, Jeff Bennett and Mindy Cohn 

h**p://www.imdb.com/title/tt1097636/

Spoken Language:- English
-=-=-=-=-=-=-=-=-=-=-=-=-=-=-=-=-=-=-=-=-

Format                           : AVI
Format/Info                      : Audio Video Interleave
File size                        : 552 MiB
Duration                         : 1h 8mn
Overall bit rate                 : 1 119 Kbps
Writing library                  : VirtualDub build 32842/release

Video
ID                               : 0
Format                           : MPEG-4 Visual
Format profile                   : Simple@L1
Format settings, BVOP            : No
Format settings, QPel            : No
Format settings, GMC             : No warppoints
Format settings, Matrix          : Default (H.263)
Codec ID                         : XVID
Codec ID/Hint                    : XviD
Duration                         : 1h 8mn
Bit rate                         : 982 Kbps
Width                            : 720 pixels
Height                           : 420 pixels
Display aspect ratio             : 16:9
Frame rate                       : 25.000 fps
Color space                      : YUV
Chroma subsampling               : 4:2:0
Bit depth                        : 8 bits
Scan type                        : Progressive
Compression mode                 : Lossy
Bits/(Pixel*Frame)               : 0.130
Stream size                      : 484 MiB (88%)
Writing library                  : Lavc52.41.0

Audio
ID                               : 1
Format                           : MPEG Audio
Format version                   : Version 1
Format profile                   : Layer 3
Mode                             : Joint stereo
Codec ID                         : 55
Codec ID/Hint                    : MP3
Duration                         : 1h 8mn
Bit rate mode                    : Constant
Bit rate                         : 128 Kbps
Channel(s)                       : 2 channels
Sampling rate                    : 48.0 KHz
Compression mode                 : Lossy
Stream size                      : 63.1 MiB (11%)
Alignment                        : Split accross interleaves
Interleave, duration             : 40 ms (1.00 video frame)
Interleave, preload duration     : 500 ms

-=-=-=-=-=-=-=-=-=-=-=-=-=-=-=-=-=-=-=-=-

Screenshots
-------------
[URL=http://img20.imageshack.us/i/chilloutscoobydooojavit.jpg/][IMG]http://img20.imageshack.us/img20/4816/chilloutscoobydooojavit.jpg[/IMG][/URL]

-=-=-=-=-=-=-=-=-=-=-=-=-=-=-=-=-=-=-=-=-

Hash
---------
666820DD2B61560A83290026BA74A29867A45DDC
-=-=-=-=-=-=-=-=-=-=-=-=-=-=-=-=-=-=-=-=-
[/center]


